<svg width="16" height="16" viewBox="0 0 16 16" fill="none" xmlns="http://www.w3.org/2000/svg">
<path fill-rule="evenodd" clip-rule="evenodd" d="M5.20667 1.33334H10.794C12.8533 1.33334 14 2.52 14 4.55334V11.44C14 13.5067 12.8533 14.6667 10.794 14.6667H5.20667C3.18 14.6667 2 13.5067 2 11.44V4.55334C2 2.52 3.18 1.33334 5.20667 1.33334ZM5.38667 4.44V4.43334H7.37933C7.66667 4.43334 7.9 4.66667 7.9 4.95267C7.9 5.24667 7.66667 5.48 7.37933 5.48H5.38667C5.09933 5.48 4.86667 5.24667 4.86667 4.96C4.86667 4.67334 5.09933 4.44 5.38667 4.44ZM5.38667 8.49334H10.6133C10.9 8.49334 11.1333 8.26 11.1333 7.97334C11.1333 7.68667 10.9 7.45267 10.6133 7.45267H5.38667C5.09933 7.45267 4.86667 7.68667 4.86667 7.97334C4.86667 8.26 5.09933 8.49334 5.38667 8.49334ZM5.38667 11.54H10.6133C10.8793 11.5133 11.08 11.286 11.08 11.02C11.08 10.7467 10.8793 10.52 10.6133 10.4933H5.38667C5.18667 10.4733 4.99333 10.5667 4.88667 10.74C4.78 10.9067 4.78 11.1267 4.88667 11.3C4.99333 11.4667 5.18667 11.5667 5.38667 11.54Z" fill="#4E4E4E"/>
</svg>
