<svg width="15" height="15" viewBox="0 0 15 15" fill="none" xmlns="http://www.w3.org/2000/svg">
<path fill-rule="evenodd" clip-rule="evenodd" d="M7.5 13.7501C4.05 13.7501 1.25 10.9563 1.25 7.50006C1.25 4.05006 4.05 1.25006 7.5 1.25006C10.9563 1.25006 13.75 4.05006 13.75 7.50006C13.75 10.9563 10.9563 13.7501 7.5 13.7501ZM9.49375 9.81881C9.56875 9.86256 9.65 9.88756 9.7375 9.88756C9.89375 9.88756 10.05 9.80631 10.1375 9.65631C10.2688 9.43756 10.2 9.15006 9.975 9.01256L7.75 7.68756V4.80006C7.75 4.53756 7.5375 4.33131 7.28125 4.33131C7.025 4.33131 6.8125 4.53756 6.8125 4.80006V7.95631C6.8125 8.11881 6.9 8.26881 7.04375 8.35631L9.49375 9.81881Z" fill="#4E4E4E"/>
</svg>
