<svg width="20" height="20" viewBox="0 0 20 20" fill="none" xmlns="http://www.w3.org/2000/svg">
<path fill-rule="evenodd" clip-rule="evenodd" d="M9.99935 16.6666C13.6812 16.6666 16.666 13.6819 16.666 9.99996C16.666 6.31806 13.6812 3.33329 9.99935 3.33329C6.31745 3.33329 3.33268 6.31806 3.33268 9.99996C3.33268 13.6819 6.31745 16.6666 9.99935 16.6666ZM9.99935 18.3333C14.6017 18.3333 18.3327 14.6023 18.3327 9.99996C18.3327 5.39759 14.6017 1.66663 9.99935 1.66663C5.39698 1.66663 1.66602 5.39759 1.66602 9.99996C1.66602 14.6023 5.39698 18.3333 9.99935 18.3333Z" fill="#4D4D4D"/>
<path d="M9.99935 8.33337C9.99935 7.87314 10.3724 7.50004 10.8327 7.50004H11.666C12.1263 7.50004 12.4993 7.12695 12.4993 6.66671C12.4993 6.20647 12.1263 5.83337 11.666 5.83337H10.8327C9.45197 5.83337 8.33268 6.95266 8.33268 8.33337V10H7.49935C7.03911 10 6.66602 10.3731 6.66602 10.8334C6.66602 11.2936 7.03911 11.6667 7.49935 11.6667H8.33268V16.6667C8.33268 17.1269 8.70578 17.5 9.16602 17.5C9.62625 17.5 9.99935 17.1269 9.99935 16.6667V11.6667H11.666C12.1263 11.6667 12.4993 11.2936 12.4993 10.8334C12.4993 10.3731 12.1263 10 11.666 10H9.99935V8.33337Z" fill="#4D4D4D"/>
</svg>
