<svg width="21" height="20" viewBox="0 0 21 20" fill="none" xmlns="http://www.w3.org/2000/svg">
<path fill-rule="evenodd" clip-rule="evenodd" d="M13.6667 3.33329H7C5.15905 3.33329 3.66667 4.82568 3.66667 6.66663V13.3333C3.66667 15.1742 5.15905 16.6666 7 16.6666H13.6667C15.5076 16.6666 17 15.1742 17 13.3333V6.66663C17 4.82568 15.5076 3.33329 13.6667 3.33329ZM7 1.66663C4.23858 1.66663 2 3.9052 2 6.66663V13.3333C2 16.0947 4.23858 18.3333 7 18.3333H13.6667C16.4281 18.3333 18.6667 16.0947 18.6667 13.3333V6.66663C18.6667 3.9052 16.4281 1.66663 13.6667 1.66663H7Z" fill="#4D4D4D"/>
<path d="M14.5013 6.66667C14.9615 6.66667 15.3346 6.29357 15.3346 5.83333C15.3346 5.3731 14.9615 5 14.5013 5C14.0411 5 13.668 5.3731 13.668 5.83333C13.668 6.29357 14.0411 6.66667 14.5013 6.66667Z" fill="#4D4D4D"/>
<path fill-rule="evenodd" clip-rule="evenodd" d="M14.5013 10C14.5013 12.3012 12.6358 14.1667 10.3346 14.1667C8.03345 14.1667 6.16797 12.3012 6.16797 10C6.16797 7.69881 8.03345 5.83333 10.3346 5.83333C12.6358 5.83333 14.5013 7.69881 14.5013 10ZM12.8346 10C12.8346 11.3807 11.7153 12.5 10.3346 12.5C8.95392 12.5 7.83464 11.3807 7.83464 10C7.83464 8.61929 8.95392 7.5 10.3346 7.5C11.7153 7.5 12.8346 8.61929 12.8346 10Z" fill="#4D4D4D"/>
</svg>
