<svg width="21" height="20" viewBox="0 0 21 20" fill="none" xmlns="http://www.w3.org/2000/svg">
<path fill-rule="evenodd" clip-rule="evenodd" d="M5.49768 14.2213C5.60606 14.3656 5.66467 14.5412 5.6647 14.7216L5.6649 15.7722C5.66494 16.0364 5.90774 16.2338 6.16642 16.18L7.2526 15.9541C7.42175 15.9189 7.59765 15.9371 7.75596 16.0063L7.99932 16.1126C8.81362 16.4684 9.71415 16.6666 10.6654 16.6666C14.3473 16.6666 17.332 13.6819 17.332 9.99996C17.332 6.31806 14.3473 3.33329 10.6654 3.33329C6.98347 3.33329 3.9987 6.31806 3.9987 9.99996C3.9987 11.5027 4.4939 12.8849 5.3307 13.999L5.49768 14.2213ZM7.33203 17.6399C8.3528 18.0859 9.48019 18.3333 10.6654 18.3333C15.2677 18.3333 18.9987 14.6023 18.9987 9.99996C18.9987 5.39759 15.2677 1.66663 10.6654 1.66663C6.06299 1.66663 2.33203 5.39759 2.33203 9.99996C2.33203 11.876 2.95194 13.6072 3.99809 15L3.99851 17.309C3.99861 17.8374 4.48421 18.2323 5.00156 18.1247L7.33203 17.6399Z" fill="#4D4D4D"/>
<path d="M8.54583 8.14801L6.25367 11.4225C6.15482 11.5637 6.17162 11.7555 6.2935 11.8774C6.41324 11.9971 6.60085 12.0157 6.74174 11.9218L8.55176 10.7151C8.82427 10.5334 9.17794 10.5282 9.45568 10.7018L11.662 12.0808C12.038 12.3158 12.5321 12.2152 12.7864 11.852L15.0785 8.5775C15.1774 8.43628 15.1606 8.24448 15.0387 8.1226C14.919 8.00286 14.7313 7.98428 14.5905 8.07821L12.7804 9.28489C12.5079 9.46657 12.1543 9.47177 11.8765 9.29818L9.67019 7.91923C9.29421 7.68424 8.80008 7.78479 8.54583 8.14801Z" fill="#4D4D4D"/>
</svg>
