<svg width="24" height="24" viewBox="0 0 24 24" fill="none" xmlns="http://www.w3.org/2000/svg">
<path fill-rule="evenodd" clip-rule="evenodd" d="M5.79877 17.0656C5.92883 17.2388 5.99917 17.4494 5.99921 17.666L5.99944 18.9266C5.9995 19.2437 6.29085 19.4806 6.60127 19.4161L7.90468 19.1449C8.10766 19.1027 8.31874 19.1246 8.50872 19.2076L8.80074 19.3352C9.7779 19.7621 10.8585 20 12 20C16.4183 20 20 16.4183 20 12C20 7.58172 16.4183 4 12 4C7.58172 4 4 7.58172 4 12C4 13.8033 4.59424 15.462 5.5984 16.7988L5.79877 17.0656ZM8 21.1679C9.22492 21.7031 10.5778 22 12 22C17.5228 22 22 17.5228 22 12C22 6.47715 17.5228 2 12 2C6.47715 2 2 6.47715 2 12C2 14.2512 2.74389 16.3287 3.99927 18L3.99977 20.7708C3.99989 21.4049 4.58261 21.8788 5.20344 21.7497L8 21.1679Z" fill="#4AA7F0"/>
<path d="M9.45655 9.77771L6.70597 13.7071C6.58735 13.8766 6.6075 14.1067 6.75377 14.253C6.89745 14.3967 7.12258 14.419 7.29165 14.3063L9.46368 12.8582C9.79069 12.6402 10.2151 12.634 10.5484 12.8423L13.196 14.497C13.6471 14.779 14.2401 14.6584 14.5452 14.2225L17.2958 10.2931C17.4144 10.1236 17.3942 9.89348 17.248 9.74721C17.1043 9.60353 16.8792 9.58124 16.7101 9.69395L14.5381 11.142C14.2111 11.36 13.7867 11.3662 13.4534 11.1579L10.8058 9.50317C10.3546 9.22119 9.76166 9.34185 9.45655 9.77771Z" fill="#4AA7F0"/>
</svg>
