<svg width="14" height="14" viewBox="0 0 14 14" fill="none" xmlns="http://www.w3.org/2000/svg">
<path d="M9.6378 9.08341L14 13.4454L13.4454 14L9.08344 9.63778C8.12047 10.4728 6.86379 10.9782 5.48921 10.9782C2.45755 10.9782 0 8.52056 0 5.48924C0 2.45756 2.45762 0 5.48921 0C8.5206 0 10.9781 2.45763 10.9781 5.48924C10.9781 6.86382 10.4728 8.12044 9.6378 9.08341ZM5.4892 10.194C8.08762 10.194 10.1941 8.0876 10.1941 5.48918C10.1941 2.89075 8.08762 0.784024 5.4892 0.784024C2.89079 0.784024 0.784077 2.89075 0.784077 5.48918C0.784077 8.0876 2.89079 10.194 5.4892 10.194Z" fill="#4E4E4E"/>
</svg>
